<svg xmlns="http://www.w3.org/2000/svg" viewBox="0 0 1052 1052" fill="currentColor"><path fill-rule="evenodd" d="M481.5 15c1.2 1.9-4 2.7-22 3.7a73 73 0 0 0-21.2 2.6c-1.7 1-7.4 2-12.7 2.5a35 35 0 0 0-12 2.6c-1.5 1-5.8 2-9.6 2.5-4 .5-8.2 1.7-9.6 2.6a29 29 0 0 1-8.7 2.6c-3.4.6-8 1.9-10.3 3-2.2 1-5.4 1.9-7 1.9-1.7 0-5.1 1-7.6 2.4s-6 2.7-7.9 3.1a17 17 0 0 0-5.8 2.6 10 10 0 0 1-5 1.9c-2.2 0-5.2 1.2-19.6 8-14 6.5-17.3 8-18.7 8-.8 0-2.6.9-4 2a17 17 0 0 1-5.4 2.6c-1.6.4-4.2 1.8-5.7 3-1.6 1.3-3.5 2.4-4.2 2.4s-2.6 1-4.2 2.4a16 16 0 0 1-5.3 3 18 18 0 0 0-4.5 2.5 83 83 0 0 1-12.4 8.2 43 43 0 0 0-9.8 6.1c-1 .9-3.2 2.3-4.8 3.2a72 72 0 0 0-7.5 5.1 77 77 0 0 1-7.5 5.1c-1.7 1-6.4 4.4-10.5 7.8s-10 8-13 10.3a200 200 0 0 0-10.5 8.7l-10.3 9.3a800 800 0 0 0-29.9 29.6c-1 1.2-6.5 7.4-12.3 13.7a261 261 0 0 0-21 25.8 198 198 0 0 0-10.8 14.6c-5 7-7.8 11-9.7 14a69 69 0 0 1-8.5 12c-.5.4-1 1.6-1 2.6s-1 3.1-2.4 4.7a34 34 0 0 0-4 6.3c-.9 2-3.4 6.4-5.6 10s-4 7.2-4 8c0 .9-1.1 3.2-2.5 5.2a18 18 0 0 0-2.5 4.6c0 .4-1.1 2.3-2.5 4.2a13 13 0 0 0-2.5 5c0 .8-1.4 4.2-3 7.5s-3 6.7-3 7.6-.8 2.4-1.9 3.3c-1 1-2.1 3.5-2.5 5.6a34 34 0 0 1-3.1 8.6 21 21 0 0 0-2.5 7c0 1.2-1.1 4.6-2.5 7.6a25 25 0 0 0-2.5 7.7c0 1.4-.9 3.4-2 4.6a18 18 0 0 0-2.9 8.7c-.5 3.6-1.7 7.7-2.6 9.1s-2 5.5-2.6 9.2a38 38 0 0 1-2.4 9.4c-.7 1.6-1.9 6.5-2.4 11a46 46 0 0 1-2.7 11.2 72 72 0 0 0-2.9 17.8 184 184 0 0 1-3.1 21.6c-3 11.6-2.7 104.5.4 120 1.2 6 2.6 16.5 3.2 23.3q1 12.2 2.6 14.7c.9 1.3 2 6 2.5 10.2.6 4.3 1.6 8.8 2.4 10 .7 1 1.9 5.8 2.5 10.4s1.8 9.1 2.6 10a19 19 0 0 1 2.4 7.2 40 40 0 0 0 2.8 9.4c1 2 2.3 5.6 2.6 7.8a25 25 0 0 0 2.6 7c1 1.6 2 5 2.4 7.3.4 2.4 1.5 5.5 2.5 7s2.2 4.3 2.5 6.3a11 11 0 0 0 2.6 5.4c1.1 1 2 2.5 2 3.3 0 .9 1.4 4.5 3 8.1A815 815 0 0 0 77.7 764a152 152 0 0 0 12.9 21.6 470 470 0 0 0 23 35.5c2.4 3.7 5.2 7 6 7.3q1.3.6 1.5 1.6a33 33 0 0 0 5 7.1 31 31 0 0 1 5 7c0 .4 1.5 2.4 3.3 4.3L147 862a991 991 0 0 0 44.2 44.1c6.9 6.4 9.4 8.3 17.8 14.2 2 1.3 5 4 7 6 1.8 2 3.8 3.6 4.3 3.6s2.4 1.2 4.2 2.8 5 3.8 7 5.2c4.4 3 10 7.2 13.6 9.9 1.4 1 3.8 2.3 5.3 2.7 1.4.3 3.1 1.5 3.7 2.5.5 1 1.5 1.9 2 1.9.7 0 2.6 1 4.3 2.3s4.7 3 6.6 3.7a65 65 0 0 1 9.6 5.6c3.4 2.4 7.3 4.6 8.7 5 1.5.3 3.1 1.2 3.7 2 .7.7 2.8 1.8 4.8 2.5s4.7 2 6 3 3.7 2 5.5 2.4 4.1 1.5 5.2 2.5 3.4 2 5.2 2.5a10 10 0 0 1 4.4 2 17 17 0 0 0 6 3c2.6.7 5.8 2 7 2.8s4 1.8 6 2.1 4.8 1.5 6.2 2.6a20 20 0 0 0 6.6 2.9c2.3.5 5 1.6 6 2.4a18 18 0 0 0 7.1 2.2c3 .4 7.3 1.5 9.5 2.5s6.7 2.3 10 3 7.3 2 9 2.7c1.6.9 6 2 10 2.4 3.8.4 9 1.6 11.5 2.7 2.5 1 7.9 2.2 12 2.6s9.5 1.3 12 2c2.5.9 12 2.2 21 3.1s18.3 2.1 20.5 2.8c6.7 2 80.3 1.6 93-.5 5.5-.9 14-2 19-2.3 5-.4 14.3-1.8 20.7-3.1s13-2.4 14.6-2.4c1.7 0 6-1 9.8-2.1a93 93 0 0 1 13.2-3c3.5-.4 7.1-1.4 8-2.3s4.7-2 8.4-2.6c3.7-.5 8.2-1.9 10-2.9a27 27 0 0 1 8.6-2.4 25 25 0 0 0 8.5-2.6c1.8-1 5-2.2 7.4-2.6 2.3-.3 4.7-1.3 5.4-2 .6-.9 3.3-2.1 6-3 2.6-.7 5.8-2 7-2.8s4-1.8 5.9-2.2 4.6-1.6 5.9-2.6c1.2-1 3.8-2.1 5.7-2.5s3.7-1 4-1.5 5.2-3.2 10.9-5.9a78 78 0 0 0 11-5.9c.2-.5 1.7-1.2 3.2-1.6 1.6-.3 4.6-1.8 6.8-3.2l7.6-5c2-1.3 4.2-2.3 5.1-2.3 1 0 3-1 4.5-2.3s3.5-2.6 4.4-3 4.4-2.6 7.7-5.1 6.3-4.6 6.6-4.6 2.5-1.4 4.8-3 4.7-3 5.3-3c.7 0 2-1.1 3-2.5.8-1.4 2-2.5 2.6-2.5a16 16 0 0 0 4.7-2.9 503 503 0 0 0 93.3-90c6.1-7.2 11.8-14.5 12.6-16.2s1.9-2.9 2.4-2.9 1.7-1.5 2.6-3.4c2.6-4.9 9.1-14.7 11.8-17.6 1.2-1.4 2.6-3.6 3-5s1.7-3.7 2.9-5c1.1-1.5 3.2-4.6 4.6-6.9s3.7-5.8 5.2-7.7 3-4.8 3.3-6.3a10 10 0 0 1 2.6-4.7c1-1 1.9-2.3 1.9-3s1.4-4 3-7c1.6-3.2 3-6.2 3-6.9 0-.6.9-2 2-3 1-1 2.3-3.4 2.6-5.4s1.5-4.5 2.4-5.6c1-1.1 2.2-3.4 2.6-5s1.5-3.9 2.4-5c1-1.1 2.2-3.8 2.6-6s1.5-5 2.5-6.4c1-1.2 2.1-4 2.5-6s1.5-5 2.5-6.7 2.4-5.5 3-8.5 1.8-6.3 2.5-7.5c.8-1.1 1.9-4.7 2.5-8s1.7-7 2.5-8.2c.9-1.3 2-5.1 2.5-8.5s1.7-7 2.5-7.8c.9-1 1.9-5.1 2.4-10.1.5-4.7 1.6-10.3 2.5-12.4 1-2.1 2.1-7.8 2.6-12.6s1.7-11.2 2.7-14.5a80 80 0 0 0 2.6-18.3c.4-6.9 1.3-14.3 2-16.5 1-2.4 1.5-8 1.6-13.7 0-5.9.4-9.8 1-9.8s1-8.7 1-24-.4-24-1-24-1-2.6-1-5.9a37 37 0 0 0-1.5-10.1 105 105 0 0 1-2.3-19.4c-.6-10.6-1.4-16-2.5-18.2-.9-1.7-2-7.4-2.6-12.7a41 41 0 0 0-2.5-12c-.9-1.2-1.8-5.6-2.2-9.7-.3-4.3-1.5-9.2-2.6-11.5-1-2.1-2.2-6.4-2.5-9.5s-1.5-7.3-2.8-9.5-2.5-6-2.9-8.4-1.3-5.6-2.2-7.2c-.8-1.6-1.9-5.2-2.4-8s-1.9-6.2-3-7.6-2-3.7-2-5.2c0-1.4-.7-3.7-1.5-5.1a109 109 0 0 1-9-20.7 16 16 0 0 0-2.4-5.5 16 16 0 0 1-2.5-5c-.3-1.5-1.7-4.4-3.1-6.4s-2.5-4.5-2.5-5.5q-.1-1.6-1.1-2.5c-.6-.3-2.2-3-3.6-5.8a102 102 0 0 0-10.7-18.6c-.4-.8-2.2-4-4.1-7-2-3-4.3-7.1-5.2-9s-3.6-5.9-5.8-8.6c-4.6-5.6-9.5-13-9.5-14.2 0-.5-1-1.7-2.1-2.8s-4-4.6-6.2-7.9a441 441 0 0 0-27.6-34 664 664 0 0 0-52.3-50c-2.9-3-5.7-5.5-6.3-5.5s-2.2-1.2-3.6-2.7a54 54 0 0 0-12.4-9.3c-.4 0-2.8-1.7-5.4-3.9a117 117 0 0 0-8.2-6.2l-9.5-6.3c-12-8-13-8.6-13.8-8.6-.4 0-2.2-1.1-4-2.5a14 14 0 0 0-4.3-2.5c-.5 0-1.8-.9-2.8-2-1-1-3.2-2.2-5-2.6a12 12 0 0 1-5.6-3c-1.2-1.3-3-2.4-3.8-2.4-.9 0-3.6-1.4-6-3a20 20 0 0 0-5.6-3c-.7 0-1.8-.6-2.4-1.4s-3.3-2-5.9-2.6a30 30 0 0 1-7.2-3c-1.4-1-4.2-2.3-6.2-3a14 14 0 0 1-4.8-2.4c-.6-.8-2.7-1.7-4.6-2-2-.4-5.6-1.8-8.1-3.2a22 22 0 0 0-6.2-2.4c-.9 0-3-.9-4.7-1.9s-4.6-2.2-6.4-2.6-5.3-1.8-7.8-3.1A20 20 0 0 0 685 39c-1.6 0-5.2-1.1-8.2-2.5s-7.1-2.5-9.3-2.5a21 21 0 0 1-8-2 44 44 0 0 0-11.9-3 23 23 0 0 1-9.7-2.6q-1.8-1.7-11.1-2.5a72 72 0 0 1-13.6-2.5c-2.7-1-11.3-2-23-2.8-18.6-1.3-21.8-1.8-20.7-3.7.4-.5-16.7-.9-44-.9q-44.4 0-44 1m2.5 51.7c-1.4.2-4.6 1-7.1 1.9-2.6.8-10.5 1.9-17.7 2.3q-13 1-16.2 2.6c-1.8 1-7.5 2-12.8 2.6-5.8.5-10.5 1.5-12 2.5a34 34 0 0 1-10.5 2.6c-4.6.5-9.4 1.6-11.1 2.7-1.7 1-5.1 2.1-7.6 2.5a24 24 0 0 0-7.5 2.6c-1.6 1-4.8 2.2-7 2.6s-6 1.8-8.4 3a20 20 0 0 1-6.4 2.4c-1 0-3.6.9-5.6 2-7.5 3.9-16.8 8-18.2 8-.8 0-3 1.1-4.9 2.5a13 13 0 0 1-5 2.5c-.8 0-3.3 1.1-5.5 2.5a18 18 0 0 1-5.6 2.5c-.8 0-2.6 1-3.8 2.4a12 12 0 0 1-5.5 3 10 10 0 0 0-5 2.6c-1 1-3.1 2.2-4.7 2.5-1.6.4-3.1 1-3.4 1.6q-.6 1-16 10.7l-8.2 5.4a24 24 0 0 1-4.8 2.8c-.4 0-3.3 2.2-6.4 4.8-3 2.7-8 6.5-11 8.6s-6 4.3-6.5 5-5.2 4.6-10.1 8.7a471 471 0 0 0-35.4 33.4c-.8 1.1-5.8 6.7-11 12.5a295 295 0 0 0-30.9 38.4c-6.5 9-9.5 13.6-13.8 21.1-1 1.6-2.7 4.3-4 5.8a12 12 0 0 0-2.4 4c0 .8-1.1 2.8-2.5 4.7a13 13 0 0 0-2.5 5.3c0 1-1.1 3.2-2.5 4.9-1.4 1.6-2.5 3.5-2.5 4.2s-1.1 2.7-2.4 4.5a20 20 0 0 0-3.1 6.2 8 8 0 0 1-2 4c-.8.6-2 3-2.6 5.2s-2 5.2-3 6.6a9 9 0 0 0-1.9 4.5c0 1.2-1.1 3.8-2.5 5.8s-2.5 4.5-2.5 5.4-1 3.6-2.4 5.8a32 32 0 0 0-3.1 7.6c-.4 2-1.5 5-2.5 7s-2 5.5-2.5 8-1.6 6.1-2.6 8.2-2.1 5.6-2.5 8c-.4 2.3-1.5 6.3-2.4 8.8-1 2.5-2.3 8-3 12.3-.5 4.3-1.7 9.1-2.5 10.8a48 48 0 0 0-2.4 14.7 45 45 0 0 1-2.6 15.2c-1.6 3-2 7.2-2.6 27.5-.5 13.2-1.3 25.6-1.9 27.5-1.2 4.3-1.2 21 0 27 .6 2.5 1.4 14 1.9 25.8.7 17.8 1.2 21.7 2.7 24 1.3 2 2 5.7 2.5 13.3a46 46 0 0 0 2.3 13.8c1 1.7 2.1 7 2.7 11.9.6 4.8 1.7 9.8 2.6 11 .8 1.3 2 5.4 2.5 9a32 32 0 0 0 2.4 9c.8 1.1 2 4.8 2.8 8.1s1.7 6.5 2.1 7.2a240 240 0 0 1 7.6 19.6c1 3 2.8 6.7 4 8.5 1 1.8 1.9 4 1.9 4.8s2.3 6 5 11.5 5 10.8 5 11.7 1 3 2.4 4.5 2.7 4 3 5.3c.5 1.4 1.6 3.4 2.6 4.5s2.1 3.1 2.5 4.5 3 5.8 5.6 10l7.5 12c5.3 8.9 7.9 12.6 12.4 18 2.5 3 5 6.1 5.5 7a153 153 0 0 0 15 19.4l13 15.5a672 672 0 0 0 63.5 58.4l7 5.2a62 62 0 0 0 7.5 5c1.6.8 6.4 4 10.5 7a95 95 0 0 0 11.6 7.4 14 14 0 0 1 4.8 3c.4.6 2.6 2 4.9 3.1s6.2 3.2 8.7 4.7c8 4.6 18.4 10 21 10.8 1.4.4 3.6 1.6 4.9 2.6a16 16 0 0 0 5.6 2.5c1.9.3 4.1 1.5 5 2.5s3 1.9 4.5 1.9 4.8 1.1 7.3 2.4c2.5 1.4 6.2 2.8 8.2 3.2a16 16 0 0 1 5.8 2.4c1.2 1 3.8 2 5.7 2.4s5.1 1.4 7 2.5c2 1 5.5 2.2 8 2.6s6.1 1.6 8 2.5c2 1 6.5 2.2 10 2.5 3.6.4 8.3 1.5 10.5 2.5s6.5 2.2 9.5 2.5c3 .4 9.1 1.7 13.5 3a100 100 0 0 0 17.5 3c5.2.4 11.8 1.4 14.5 2.3 7.5 2.5 101.4 2.6 109.2 0 2.8-.9 9.3-2 14.5-2.3 5-.4 12-1.5 15.4-2.5s9.6-2.3 13.8-3c4.2-.5 9-1.7 10.6-2.5s6.4-2 10.7-2.6 9.1-1.9 10.8-2.9a26 26 0 0 1 8-2.5c2.7-.4 6.5-1.5 8.5-2.5s5-2 6.8-2.3a16 16 0 0 0 5.8-2.6 17 17 0 0 1 6.7-2.6q5.8-.8 19.7-8a39 39 0 0 1 7.7-3c1.8-.3 3.5-1 3.9-1.6a74 74 0 0 1 10.7-6c5.6-2.7 12-6.1 14.2-7.5a97 97 0 0 1 8.1-4.4c2.3-1.1 4.7-2.6 5.3-3.4.7-.8 2.4-1.7 3.8-2s3.8-1.6 5.2-2.7c8-6.1 10.5-7.9 11.2-7.9.4 0 3.8-2.2 7.5-5s7-5 7.6-5c.4 0 3.4-2.4 6.6-5.3a154 154 0 0 1 9.7-8.2 491 491 0 0 0 74.4-75.3c3.4-4 6.1-7.8 6.1-8.3s2.1-3.7 4.8-7a110 110 0 0 0 14.7-21.4l4.4-7.6c1-2 2.6-4.1 3.5-4.8s1.8-2.7 2.2-4.4c.3-1.8 1.7-4.5 3-6 1.3-1.6 2.4-3.4 2.4-4 0-.8 1.1-2.8 2.4-4.6 1.4-1.9 2.8-4.6 3.1-6.2a8 8 0 0 1 2-4c.8-.5 2-2.7 2.6-4.7s1.8-4.4 2.5-5.3c.8-.9 2-3.8 3-6.6.7-2.8 2-5.6 2.9-6.3s1.5-2 1.5-3 1-3.7 2.3-6.1 2.7-6.2 3.1-8.4 1.6-5.4 2.6-7a25 25 0 0 0 2.5-7.8c.4-2.6 1.5-5.7 2.5-7s2-4.5 2.5-7.2a41 41 0 0 1 2.6-9.1c1-2.3 2.1-6.1 2.5-8.5s1.5-6.5 2.5-9.1 2.3-9.8 3-16c.6-6.2 1.7-13.1 2.5-15.3s1.9-11 2.4-21a98 98 0 0 1 2.7-22c2.7-7.7 2.7-62 0-68-1.5-3-2-7.8-2.7-20.5a86 86 0 0 0-2.3-20c-.8-2-2-8.9-2.7-15.5a61 61 0 0 0-2.6-14 36 36 0 0 1-2.4-9.5c-.6-4.1-2-8.6-3-10s-2-5-2.5-8a27 27 0 0 0-2.5-8.5c-1-1.6-2.2-4.8-2.6-7a31 31 0 0 0-2.5-7.5 16 16 0 0 1-1.9-5.6 14 14 0 0 0-2.4-5.7c-1.4-2-2.8-5.3-3.1-7.4s-1.5-5-2.5-6.4-2.2-4-2.6-5.5q-1-3.7-8.9-18.4l-2.4-5c-.6-1.4-2.4-4.7-4-7.5s-4-6.8-5.1-9c-1.2-2.2-3.4-6-5-8.5s-3.7-6-4.6-8a27 27 0 0 0-3.4-5.5 143 143 0 0 0-10.7-15.4c-3.4-4.4-6.4-9-6.8-10.3s-1.8-3.2-3-4.3a380 380 0 0 1-15.6-18 406 406 0 0 0-24.3-26.5l-18-17.4a84 84 0 0 0-9.6-8.4c-1.4-1-6.3-4.8-11-8.7-4.7-4-9.2-7.4-10-7.7s-4-2.5-7-5c-3-2.4-7.7-5.8-10.5-7.6a86 86 0 0 1-13.9-9.8 13 13 0 0 0-4.6-2.9 15 15 0 0 1-4.5-2.4 66 66 0 0 0-15.9-8.1c-.7 0-2.5-1-3.9-2-3.2-2.5-13.5-8-15-8-.7 0-2.9-1.1-5-2.5-2-1.4-4.1-2.5-4.8-2.5s-4.2-1.4-7.8-3c-14.9-7-14.6-6.9-28.3-11.6-3.7-1.2-7.7-3-9-3.7a22 22 0 0 0-6.8-2.2 44 44 0 0 1-9-2.6 54 54 0 0 0-11.3-3c-3.7-.5-8.2-1.6-9.8-2.4-1.6-.9-8-2-14.1-2.6-8-.7-11.7-1.4-13-2.6s-4.9-1.9-14-2.4a82 82 0 0 1-17.3-2.5c-4.8-1.7-84.4-3.2-92.5-1.7M386 236c-1.4.6-4.7 1.5-7.5 2s-5.9 2-7 3a13 13 0 0 1-4.7 2.4c-4.8 1.2-15.8 16-15.8 21 0 1.7-1 4.9-2.2 7-3.7 6.6-3.5 85.2.2 90.5a212 212 0 0 0 21.5 23.5 415 415 0 0 1 15.4 16.3C398 415.8 398 416 398 356c0-27.3.3-50.6.6-51.9 1.4-5.1 4.5-2.8 24.5 18l53.9 56.4c45.3 48.6 44.3 47.7 49.2 49 2.9.6 15.4-11.4 41.7-40.1 9-9.9 19.7-21.2 23.5-25.1a333 333 0 0 0 16.6-17.6c0-1 41.9-42.8 42.9-42.8 2.9 0 3 9.4 3 189.9 0 161.2.2 185.5 1.5 189.3.8 2.4 1.8 7.6 2.1 11.6.6 5.2 1.4 8 3.1 10.4a13 13 0 0 1 2.4 6.3 7 7 0 0 0 2 5 17 17 0 0 1 3.5 5.2c1.4 3.4 23.4 26.3 25.3 26.3.6 0 6.9 4.7 13.9 10.4a445 445 0 0 0 32.9 26.1l8 5.3c16.5 11.6 55.2.4 59-17a14 14 0 0 1 2.8-5.6c3.8-4.2 3.2-400.1-.6-405.6a18 18 0 0 1-2.8-5c-.2-4.8-16.6-17.5-24.8-19.3-3.7-.7-7.1-1.8-7.6-2.3-1.4-1.4-6.3-1.2-9.4.4-1.5.7-5 1.7-7.7 2a19 19 0 0 0-7.6 3l-8.5 6.3c-20.6 14.8-22.5 19.4-22.2 56 .4 39.4-.5 38 14.1 23.3 5.7-5.8 12.6-13 15.2-16 8.2-9.3 9-9.8 12.4-6.6 4.5 4.3 4 320-.4 328.6-1.8 3.4-2.3 3.2-13-5.6-2.7-2.2-7.2-5.6-10-7.5a126 126 0 0 1-18.7-16c-4.9-4.6-8.8-9-8.8-9.8s-1-3.2-2.3-5.1c-2.2-3.5-2.2-3.5-2.7-211s-.5-207.5-2.7-210.7a12 12 0 0 1-2.3-5.4c0-5.4-17.8-19.5-26.4-20.9-2.8-.5-6.4-1.3-8-2a15 15 0 0 0-11.4.4c-1.5.7-4.2 1.6-6 2-6.8 1.2-18.1 10.4-29.3 23.6-3.8 4.4-14.1 15-24.5 25-5 4.8-25.2 26.3-29.2 31-11.8 14-36.7 38-39.3 38-2 0-4.5-2-11-9.1-4.6-5-12.9-13.9-18.4-19.6a224 224 0 0 1-11.5-12.7c-.8-1.2-9.1-9.9-18.5-19.3a759 759 0 0 1-37.5-39 149 149 0 0 0-16.5-15c-5.4-3.7-22.1-7-26.5-5.2m-108.7 97.4c-1.8.7-5.2 1.7-7.7 2s-5.3 1.6-6.2 2.6-2.2 1.9-2.8 1.9c-3.3 0-15.4 13.4-17 19a14 14 0 0 1-2.5 4.4c-2.7 3.1-3 392.2-.2 398l3.4 7.6a58 58 0 0 0 15.1 17.6c1.2.3 4.6 1.7 7.6 3.2 13.5 6.6 34.8 2.7 47.7-8.7 2.8-2.5 8.1-6.9 11.8-9.6 6.6-5 8.2-6.3 17.4-14.4a102 102 0 0 1 13.8-10.3c6-4 24.3-22.6 25.9-26.3a14 14 0 0 1 2.8-4.5c.9-.7 1.6-1.8 1.6-2.4 0-.7 1-3 2-5.1a46 46 0 0 0 3.2-8.5c.6-2.5 1.8-5.6 2.7-7 3.5-5.3 2.8-163.8-.7-168.3a96 96 0 0 0-15-15.6c-1.2-.6-2.2-1.7-2.2-2.3 0-1.2-6.7-9-17.3-19.8-6.9-7-12-9.2-13.2-5.7-.3.6-.6 46.9-.8 102.7-.3 85.1-.6 102-1.8 104.1-3 5.7-7 10.7-9.8 13l-13 10.4a973 973 0 0 1-26.2 20.4q-3 2.4-4 1.3c-1.4-1.3-1.3-332.2 0-333.5 1.6-1.6 6 .2 7.5 3a56 56 0 0 0 8.8 9.8c4 3.9 10 10 13.1 13.5a1151 1151 0 0 0 22.5 23.5 360 360 0 0 1 17.2 18.2c.3.6 8.2 9.2 17.7 19s27 28.1 39 40.8a3449 3449 0 0 0 46.3 48.2 623 623 0 0 0 37 38.5c10.5 7.5 26.7 10.8 35 7 2.5-1 6-2.3 8-2.7 4.6-1 7.3-3.1 18.3-14.4l15.8-16.2c3.7-3.7 10-10.5 14-15.1s12.7-13.7 19.3-20.4c14-13.8 27-28 27.5-29.7.2-.7 1-2 2-3 1.6-1.9 2.8-54.8 1.4-61.5-1.3-5.8-6-3.1-19.7 11L595 497.7c-8 8.3-19.1 20-24.6 26s-17 18-25.5 26.6c-19.4 19.7-18.4 19.5-30.2 7.2l-19.3-20a463 463 0 0 1-31-33.3 46 46 0 0 0-7.2-7.3c-3.3-3-8.8-8.4-12-12.3-5.3-6.2-33.8-36-46.4-48.7a325 325 0 0 0-20.9-22.6c-8-8.1-20.4-21-27.5-28.7-30.2-32.1-40.3-42.2-43.9-43.6a28 28 0 0 1-5.4-3c-1.2-1-4.1-2-6.4-2.4-2.2-.4-5.6-1.4-7.4-2.1-4.1-1.7-6-1.7-10.1 0"/></svg>